# xmcd
#
# Track frame offsets: 
#        150
#        12683
#        27784
#        40114
#        52935
#        64200
#        83036
#        97480
#        112558
#        125693
#        142753
#        154163
#
# Disc length: 2237 seconds
#
# Revision: 0
# Processed by: cddbd v1.5.2PL0 Copyright (c) Steve Scherf et al.
# Submitted via: ExactAudioCopy v0.99pb3
#
DISCID=9708bb0c
DTITLE=Sweet Potato Pie - Patches of Blue
DYEAR=2008
DGENRE=Bluegrass
TTITLE0=Arizona
TTITLE1=Katelyn Grey
TTITLE2=Crazy
TTITLE3=Knock
TTITLE4=Beaumont Rag
TTITLE5=Keep a Watch
TTITLE6=Cowboy Man
TTITLE7=Stars in My Crown
TTITLE8=Tennessee Waltz
TTITLE9=Merry Go Round
TTITLE10=Penny's Banjo
TTITLE11=Cowboy's Sweetheart
EXTD=
EXTT0=
EXTT1=
EXTT2=
EXTT3=
EXTT4=
EXTT5=
EXTT6=
EXTT7=
EXTT8=
EXTT9=
EXTT10=
EXTT11=
PLAYORDER=
